<svg xmlns="http://www.w3.org/2000/svg" viewBox="0 0 720 1580" font-family="'Segoe UI', system-ui, -apple-system, sans-serif">
  <defs>
    <marker id="ad" markerWidth="7" markerHeight="5" refX="7" refY="2.5" orient="auto">
      <path d="M0,0 L7,2.5 L0,5" fill="#555"/>
    </marker>
    <marker id="ap" markerWidth="7" markerHeight="5" refX="7" refY="2.5" orient="auto">
      <path d="M0,0 L7,2.5 L0,5" fill="#7c6fe0"/>
    </marker>
    <marker id="ag" markerWidth="7" markerHeight="5" refX="7" refY="2.5" orient="auto">
      <path d="M0,0 L7,2.5 L0,5" fill="#3a9e6e"/>
    </marker>
    <marker id="ab" markerWidth="7" markerHeight="5" refX="7" refY="2.5" orient="auto">
      <path d="M0,0 L7,2.5 L0,5" fill="#4a8fd4"/>
    </marker>
    <marker id="ao" markerWidth="7" markerHeight="5" refX="7" refY="2.5" orient="auto">
      <path d="M0,0 L7,2.5 L0,5" fill="#e0a040"/>
    </marker>
  </defs>

  <rect width="720" height="1580" fill="#0e0e12"/>

  <!-- Title -->
  <text x="360" y="32" text-anchor="middle" fill="#e0dfe6" font-size="17" font-weight="600">VibeNode System Architecture</text>

  <!-- ═══════════════════════════════════════════ -->
  <!-- LEGEND -->
  <!-- ═══════════════════════════════════════════ -->
  <rect x="30" y="50" width="660" height="44" rx="6" fill="#141418" stroke="#2a2a35" stroke-width="1"/>
  <rect x="46" y="64" width="28" height="14" rx="3" fill="#1a1a30" stroke="#7c6fe0" stroke-width="1"/>
  <text x="82" y="75" fill="#777" font-size="9">SYNC thread</text>
  <rect x="152" y="64" width="28" height="14" rx="3" fill="#1a2a1a" stroke="#e0a040" stroke-width="1"/>
  <text x="188" y="75" fill="#777" font-size="9">ASYNC event loop</text>
  <line x1="288" y1="71" x2="316" y2="71" stroke="#7c6fe0" stroke-width="1.5" marker-end="url(#ap)"/>
  <text x="324" y="75" fill="#777" font-size="9">WebSocket</text>
  <line x1="388" y1="71" x2="416" y2="71" stroke="#3a9e6e" stroke-width="1.5" marker-end="url(#ag)"/>
  <text x="424" y="75" fill="#777" font-size="9">TCP IPC</text>
  <line x1="484" y1="71" x2="512" y2="71" stroke="#4a8fd4" stroke-width="1.5" marker-end="url(#ab)"/>
  <text x="520" y="75" fill="#777" font-size="9">stdio pipe</text>
  <line x1="584" y1="71" x2="612" y2="71" stroke="#e0a040" stroke-width="1.5" marker-end="url(#ao)"/>
  <text x="620" y="75" fill="#777" font-size="9">async dispatch</text>

  <!-- ═══════════════════════════════════════════ -->
  <!-- LAYER 1: BROWSER -->
  <!-- ═══════════════════════════════════════════ -->
  <rect x="30" y="110" width="660" height="80" rx="8" fill="#18181f" stroke="#2a2a35" stroke-width="1"/>
  <text x="50" y="130" fill="#888" font-size="10" font-weight="700" letter-spacing="1">BROWSER</text>
  <text x="50" y="148" fill="#c8c6d0" font-size="12" font-weight="500">VibeNode UI — localhost:5050</text>
  <text x="50" y="166" fill="#666" font-size="10">JavaScript (live-panel.js, socket.js, app.js, kanban.js) — all synchronous, single-threaded</text>
  <text x="50" y="180" fill="#555" font-size="9">Sends: start_session, send_message, interrupt_session, permission_response</text>

  <!-- Arrow: Browser → Flask -->
  <line x1="310" y1="190" x2="310" y2="226" stroke="#7c6fe0" stroke-width="1.5" marker-end="url(#ap)"/>
  <line x1="410" y1="226" x2="410" y2="190" stroke="#7c6fe0" stroke-width="1.5" marker-end="url(#ap)"/>
  <text x="268" y="212" fill="#9b8ce0" font-size="9" font-weight="500">events ▼</text>
  <text x="420" y="212" fill="#9b8ce0" font-size="9" font-weight="500">▲ state, entries, permissions</text>

  <!-- ═══════════════════════════════════════════ -->
  <!-- LAYER 2: PROCESS 1 — FLASK WEB SERVER -->
  <!-- ═══════════════════════════════════════════ -->
  <rect x="30" y="230" width="660" height="260" rx="8" fill="#161620" stroke="#7c6fe0" stroke-width="1"/>
  <rect x="30" y="230" width="660" height="26" rx="8" fill="#7c6fe0"/>
  <rect x="30" y="246" width="660" height="10" fill="#7c6fe0"/>
  <text x="360" y="248" text-anchor="middle" fill="#fff" font-size="11" font-weight="600">PROCESS 1 — Flask Web Server — port 5050</text>
  <text x="360" y="274" text-anchor="middle" fill="#555" font-size="9">Can be restarted without killing sessions. All session calls proxy to daemon.</text>

  <!-- Thread: Flask thread pool -->
  <rect x="50" y="288" width="290" height="64" rx="6" fill="#1a1a30" stroke="#7c6fe0" stroke-width="0.8"/>
  <text x="60" y="303" fill="#9b8ce0" font-size="9" font-weight="600">SYNC THREAD POOL</text>
  <text x="60" y="318" fill="#b0aec0" font-size="11" font-weight="500">Flask Request Handlers</text>
  <text x="60" y="334" fill="#666" font-size="9">HTTP routes + SocketIO event handlers (ws_events.py)</text>
  <text x="60" y="346" fill="#555" font-size="8">async_mode='threading' — each WS event gets a pool thread</text>

  <!-- Thread: daemon-reader -->
  <rect x="50" y="362" width="290" height="50" rx="6" fill="#1a1a30" stroke="#7c6fe0" stroke-width="0.8"/>
  <text x="60" y="377" fill="#9b8ce0" font-size="9" font-weight="600">SYNC THREAD: daemon-reader</text>
  <text x="60" y="392" fill="#b0aec0" font-size="11" font-weight="500">Reads JSON lines from daemon TCP socket</text>
  <text x="60" y="405" fill="#555" font-size="8">Blocking socket.recv() loop — never touches SocketIO directly</text>

  <!-- Thread: socketio-emitter -->
  <rect x="50" y="422" width="290" height="50" rx="6" fill="#1a1a30" stroke="#7c6fe0" stroke-width="0.8"/>
  <text x="60" y="437" fill="#9b8ce0" font-size="9" font-weight="600">SYNC THREAD: socketio-emitter</text>
  <text x="60" y="452" fill="#b0aec0" font-size="11" font-weight="500">Drains queue, calls socketio.emit()</text>
  <text x="60" y="465" fill="#555" font-size="8">Decoupled so slow WebSocket writes never block IPC reads</text>

  <!-- Queue between reader and emitter -->
  <rect x="356" y="390" width="120" height="34" rx="4" fill="#1e1e28" stroke="#555" stroke-width="0.5"/>
  <text x="416" y="411" text-anchor="middle" fill="#999" font-size="10">queue.Queue</text>
  <line x1="340" y1="400" x2="356" y2="407" stroke="#555" stroke-width="1" marker-end="url(#ad)"/>
  <line x1="476" y1="407" x2="476" y2="447" stroke="#555" stroke-width="1"/>
  <line x1="476" y1="447" x2="340" y2="447" stroke="#555" stroke-width="1" marker-end="url(#ad)"/>

  <!-- DaemonClient label -->
  <rect x="360" y="288" width="316" height="64" rx="6" fill="#1c1c28" stroke="#3a9e6e" stroke-width="0.8"/>
  <text x="370" y="303" fill="#5eb888" font-size="9" font-weight="600">DAEMON CLIENT (TCP proxy)</text>
  <text x="370" y="318" fill="#b0aec0" font-size="10" font-weight="500">_send_request(method, params)</text>
  <text x="370" y="334" fill="#666" font-size="9">Sends JSON request, blocks on threading.Event</text>
  <text x="370" y="346" fill="#555" font-size="8">until daemon-reader thread delivers matching response</text>

  <!-- Arrow: Flask → Daemon -->
  <line x1="310" y1="490" x2="310" y2="540" stroke="#3a9e6e" stroke-width="2" marker-end="url(#ag)"/>
  <line x1="410" y1="540" x2="410" y2="490" stroke="#3a9e6e" stroke-width="2" marker-end="url(#ag)"/>
  <text x="220" y="520" fill="#5eb888" font-size="9" font-weight="500">JSON request ▼</text>
  <text x="420" y="520" fill="#5eb888" font-size="9" font-weight="500">▲ response + push events</text>
  <text x="360" y="534" text-anchor="middle" fill="#3a6e50" font-size="8">TCP 127.0.0.1:5051</text>

  <!-- ═══════════════════════════════════════════ -->
  <!-- LAYER 3: PROCESS 2 — SESSION DAEMON -->
  <!-- ═══════════════════════════════════════════ -->
  <rect x="30" y="544" width="660" height="436" rx="8" fill="#161620" stroke="#3a9e6e" stroke-width="1"/>
  <rect x="30" y="544" width="660" height="26" rx="8" fill="#3a9e6e"/>
  <rect x="30" y="560" width="660" height="10" fill="#3a9e6e"/>
  <text x="360" y="562" text-anchor="middle" fill="#fff" font-size="11" font-weight="600">PROCESS 2 — Session Daemon — port 5051 (survives web restarts)</text>
  <text x="360" y="586" text-anchor="middle" fill="#555" font-size="9">Detached subprocess. Owns all Claude sessions. Crash recovery from ~/.claude/gui_active_sessions.json</text>

  <!-- Thread: IPC handler -->
  <rect x="50" y="600" width="300" height="50" rx="6" fill="#1a1a30" stroke="#7c6fe0" stroke-width="0.8"/>
  <text x="60" y="615" fill="#9b8ce0" font-size="9" font-weight="600">SYNC THREAD: IPC handler (_handle_client)</text>
  <text x="60" y="630" fill="#b0aec0" font-size="10" font-weight="500">Reads requests from Flask TCP socket</text>
  <text x="60" y="643" fill="#555" font-size="8">Spawns a worker thread per request so nothing blocks</text>

  <!-- Thread: worker threads -->
  <rect x="370" y="600" width="306" height="50" rx="6" fill="#1a1a30" stroke="#7c6fe0" stroke-width="0.8"/>
  <text x="380" y="615" fill="#9b8ce0" font-size="9" font-weight="600">SYNC THREADS: per-request workers</text>
  <text x="380" y="630" fill="#b0aec0" font-size="10" font-weight="500">send_message(), interrupt_session(), etc.</text>
  <text x="380" y="643" fill="#555" font-size="8">Set state synchronously, then dispatch async work ▼</text>

  <!-- Async dispatch arrow -->
  <line x1="520" y1="650" x2="520" y2="680" stroke="#e0a040" stroke-width="1.5" marker-end="url(#ao)"/>
  <text x="534" y="670" fill="#c09030" font-size="8">run_coroutine_threadsafe()</text>

  <!-- ═══════════════════════════════════════════ -->
  <!-- THE ASYNC EVENT LOOP -->
  <!-- ═══════════════════════════════════════════ -->
  <rect x="50" y="684" width="626" height="280" rx="8" fill="#1a2a1a" stroke="#e0a040" stroke-width="1.2"/>
  <text x="66" y="704" fill="#e0a040" font-size="10" font-weight="700" letter-spacing="0.5">ASYNC EVENT LOOP — single dedicated thread (session-manager-loop)</text>
  <text x="66" y="718" fill="#888" font-size="9">All sessions share this one loop. Coroutines yield at await points. No threading bugs between sessions.</text>

  <!-- Session tasks -->
  <text x="66" y="742" fill="#999" font-size="9" font-weight="600">asyncio.Tasks (one per active session):</text>

  <!-- Session A -->
  <rect x="66" y="752" width="186" height="80" rx="5" fill="#141e22" stroke="#4a8fd4" stroke-width="0.8"/>
  <text x="159" y="770" text-anchor="middle" fill="#70b0e8" font-size="10" font-weight="600">Session A</text>
  <rect x="78" y="778" width="54" height="14" rx="3" fill="#1e3a28" stroke="#3a9e6e" stroke-width="0.5"/>
  <text x="105" y="789" text-anchor="middle" fill="#6ee0a0" font-size="8">WORKING</text>
  <text x="159" y="805" text-anchor="middle" fill="#666" font-size="9">_send_query()</text>
  <text x="159" y="818" text-anchor="middle" fill="#555" font-size="8">await receive_response()</text>
  <text x="159" y="828" text-anchor="middle" fill="#444" font-size="7">yields → loop runs other tasks</text>

  <!-- Session B -->
  <rect x="264" y="752" width="186" height="80" rx="5" fill="#141e22" stroke="#4a8fd4" stroke-width="0.8"/>
  <text x="357" y="770" text-anchor="middle" fill="#70b0e8" font-size="10" font-weight="600">Session B</text>
  <rect x="276" y="778" width="40" height="14" rx="3" fill="#2a2a18" stroke="#c0a030" stroke-width="0.5"/>
  <text x="296" y="789" text-anchor="middle" fill="#e0c060" font-size="8">IDLE</text>
  <text x="357" y="805" text-anchor="middle" fill="#666" font-size="9">awaiting user input</text>
  <text x="357" y="818" text-anchor="middle" fill="#555" font-size="8">no active task</text>

  <!-- Session C -->
  <rect x="462" y="752" width="200" height="80" rx="5" fill="#141e22" stroke="#4a8fd4" stroke-width="0.8"/>
  <text x="562" y="770" text-anchor="middle" fill="#70b0e8" font-size="10" font-weight="600">Session C</text>
  <rect x="474" y="778" width="56" height="14" rx="3" fill="#2a1a2a" stroke="#9060a0" stroke-width="0.5"/>
  <text x="502" y="789" text-anchor="middle" fill="#c090e0" font-size="8">WAITING</text>
  <text x="562" y="805" text-anchor="middle" fill="#666" font-size="9">permission prompt</text>
  <text x="562" y="818" text-anchor="middle" fill="#555" font-size="8">blocked on anyio.Event</text>
  <text x="562" y="828" text-anchor="middle" fill="#444" font-size="7">yields → loop runs other tasks</text>

  <text x="360" y="852" text-anchor="middle" fill="#555" font-size="11" letter-spacing="4">· · ·</text>

  <!-- ThreadPoolExecutor -->
  <rect x="66" y="866" width="296" height="44" rx="5" fill="#1a1a30" stroke="#7c6fe0" stroke-width="0.8"/>
  <text x="76" y="882" fill="#9b8ce0" font-size="9" font-weight="600">SYNC: ThreadPoolExecutor (offloaded I/O)</text>
  <text x="76" y="896" fill="#666" font-size="9">File snapshots · JSONL parsing · directory rglob</text>
  <text x="76" y="906" fill="#555" font-size="8">Called via await loop.run_in_executor() — doesn't block event loop</text>

  <!-- SDK patches -->
  <rect x="378" y="866" width="284" height="44" rx="5" fill="#1c1c28" stroke="#d45050" stroke-width="0.8" stroke-dasharray="3,3"/>
  <text x="388" y="882" fill="#e07070" font-size="9" font-weight="600">SDK MONKEY-PATCHES (4)</text>
  <text x="388" y="896" fill="#666" font-size="9">Keep stdin open · permission format · parse tolerance</text>
  <text x="388" y="906" fill="#555" font-size="8">No-window subprocess (Windows)</text>

  <!-- Persistence -->
  <rect x="50" y="920" width="626" height="44" rx="5" fill="#1a1a22" stroke="#444" stroke-width="0.5"/>
  <text x="66" y="938" fill="#999" font-size="9" font-weight="600">PERSISTENCE</text>
  <text x="66" y="952" fill="#666" font-size="9">~/.claude/projects/*.jsonl · gui_active_sessions.json · queues · file snapshots</text>

  <!-- Arrow: Event loop → CLI subprocesses -->
  <line x1="159" y1="832" x2="159" y2="848" stroke="#4a8fd4" stroke-width="0.5" stroke-dasharray="2,2"/>
  <line x1="562" y1="832" x2="562" y2="848" stroke="#4a8fd4" stroke-width="0.5" stroke-dasharray="2,2"/>

  <line x1="200" y1="980" x2="200" y2="1020" stroke="#4a8fd4" stroke-width="1.5" marker-end="url(#ab)"/>
  <line x1="520" y1="980" x2="520" y2="1020" stroke="#4a8fd4" stroke-width="1.5" marker-end="url(#ab)"/>
  <text x="130" y="1006" fill="#5a9ad4" font-size="9" font-weight="500">stdin/stdout ▼</text>
  <text x="450" y="1006" fill="#5a9ad4" font-size="9" font-weight="500">stdin/stdout ▼</text>
  <text x="360" y="1000" text-anchor="middle" fill="#3a6a8a" font-size="8">Each session owns its own CLI subprocess via SDK connect()</text>

  <!-- ═══════════════════════════════════════════ -->
  <!-- LAYER 4: CLI SUBPROCESSES -->
  <!-- ═══════════════════════════════════════════ -->
  <rect x="30" y="1024" width="660" height="210" rx="8" fill="#12121a" stroke="#4a8fd4" stroke-width="1"/>
  <rect x="30" y="1024" width="660" height="26" rx="8" fill="#2a5a8a"/>
  <rect x="30" y="1040" width="660" height="10" fill="#2a5a8a"/>
  <text x="360" y="1042" text-anchor="middle" fill="#fff" font-size="11" font-weight="600">CLI SUBPROCESSES — one claude process per session</text>
  <text x="360" y="1064" text-anchor="middle" fill="#555" font-size="9">Spawned by ClaudeSDKClient.connect(). Communicate with daemon via stdin/stdout pipes.</text>

  <!-- CLI A -->
  <rect x="50" y="1078" width="190" height="90" rx="5" fill="#161622" stroke="#3a5a7a" stroke-width="0.8"/>
  <text x="145" y="1096" text-anchor="middle" fill="#70b0e8" font-size="10" font-weight="500">claude (Session A)</text>
  <rect x="62" y="1106" width="166" height="20" rx="3" fill="#1a1a2a" stroke="#4a6a8a" stroke-width="0.5"/>
  <text x="145" y="1120" text-anchor="middle" fill="#6090b0" font-size="9">stdin ← query() / interrupt()</text>
  <rect x="62" y="1130" width="166" height="20" rx="3" fill="#1a1a2a" stroke="#4a6a8a" stroke-width="0.5"/>
  <text x="145" y="1144" text-anchor="middle" fill="#6090b0" font-size="9">stdout → receive_response()</text>
  <text x="145" y="1164" text-anchor="middle" fill="#444" font-size="7">anyio buffer: 100 msgs, shared across turns</text>

  <!-- CLI B -->
  <rect x="265" y="1078" width="190" height="90" rx="5" fill="#161622" stroke="#3a5a7a" stroke-width="0.8"/>
  <text x="360" y="1096" text-anchor="middle" fill="#70b0e8" font-size="10" font-weight="500">claude (Session B)</text>
  <rect x="277" y="1106" width="166" height="20" rx="3" fill="#1a1a2a" stroke="#4a6a8a" stroke-width="0.5"/>
  <text x="360" y="1120" text-anchor="middle" fill="#6090b0" font-size="9">stdin ← query() / interrupt()</text>
  <rect x="277" y="1130" width="166" height="20" rx="3" fill="#1a1a2a" stroke="#4a6a8a" stroke-width="0.5"/>
  <text x="360" y="1144" text-anchor="middle" fill="#6090b0" font-size="9">stdout → receive_response()</text>
  <text x="360" y="1164" text-anchor="middle" fill="#444" font-size="7">anyio buffer: 100 msgs, shared across turns</text>

  <!-- CLI C -->
  <rect x="480" y="1078" width="190" height="90" rx="5" fill="#161622" stroke="#3a5a7a" stroke-width="0.8"/>
  <text x="575" y="1096" text-anchor="middle" fill="#70b0e8" font-size="10" font-weight="500">claude (Session C)</text>
  <rect x="492" y="1106" width="166" height="20" rx="3" fill="#1a1a2a" stroke="#4a6a8a" stroke-width="0.5"/>
  <text x="575" y="1120" text-anchor="middle" fill="#6090b0" font-size="9">stdin ← query() / interrupt()</text>
  <rect x="492" y="1130" width="166" height="20" rx="3" fill="#1a1a2a" stroke="#4a6a8a" stroke-width="0.5"/>
  <text x="575" y="1144" text-anchor="middle" fill="#6090b0" font-size="9">stdout → receive_response()</text>
  <text x="575" y="1164" text-anchor="middle" fill="#444" font-size="7">anyio buffer: 100 msgs, shared across turns</text>

  <text x="360" y="1214" text-anchor="middle" fill="#555" font-size="11" letter-spacing="4">· · ·</text>

  <!-- Arrow: CLIs → Anthropic -->
  <line x1="360" y1="1234" x2="360" y2="1268" stroke="#7c6fe0" stroke-width="1.5" stroke-dasharray="3,3" marker-end="url(#ap)"/>
  <text x="360" y="1258" text-anchor="middle" fill="#777" font-size="9">HTTPS to Anthropic API</text>

  <!-- ═══════════════════════════════════════════ -->
  <!-- LAYER 5: ANTHROPIC API -->
  <!-- ═══════════════════════════════════════════ -->
  <rect x="130" y="1272" width="460" height="50" rx="8" fill="#161622" stroke="#7c6fe0" stroke-width="1" stroke-dasharray="4,3"/>
  <text x="360" y="1296" text-anchor="middle" fill="#9b8ce0" font-size="12" font-weight="600">Anthropic API — api.anthropic.com</text>
  <text x="360" y="1312" text-anchor="middle" fill="#666" font-size="9">Each CLI subprocess maintains its own authenticated connection to Claude</text>

  <!-- ═══════════════════════════════════════════ -->
  <!-- DATA FLOW WALKTHROUGH -->
  <!-- ═══════════════════════════════════════════ -->
  <rect x="30" y="1346" width="660" height="220" rx="8" fill="#141418" stroke="#2a2a35" stroke-width="1"/>
  <text x="50" y="1370" fill="#e0dfe6" font-size="11" font-weight="700">DATA FLOW: user sends "Fix the bug"</text>

  <text x="50" y="1394" fill="#e0c060" font-size="10" font-weight="600">1.</text>
  <text x="68" y="1394" fill="#b0aec0" font-size="10">Browser emits send_message via WebSocket</text>
  <text x="520" y="1394" fill="#555" font-size="9">JS · sync</text>

  <text x="50" y="1414" fill="#e0c060" font-size="10" font-weight="600">2.</text>
  <text x="68" y="1414" fill="#b0aec0" font-size="10">Flask SocketIO handler receives on pool thread</text>
  <text x="520" y="1414" fill="#555" font-size="9">Flask · sync thread</text>

  <text x="50" y="1434" fill="#e0c060" font-size="10" font-weight="600">3.</text>
  <text x="68" y="1434" fill="#b0aec0" font-size="10">DaemonClient sends JSON request over TCP, blocks</text>
  <text x="520" y="1434" fill="#555" font-size="9">Flask · sync thread</text>

  <text x="50" y="1454" fill="#e0c060" font-size="10" font-weight="600">4.</text>
  <text x="68" y="1454" fill="#b0aec0" font-size="10">Daemon worker thread runs send_message()</text>
  <text x="520" y="1454" fill="#555" font-size="9">Daemon · sync thread</text>

  <text x="50" y="1474" fill="#e0c060" font-size="10" font-weight="600">5.</text>
  <text x="68" y="1474" fill="#b0aec0" font-size="10">Sets state=WORKING, dispatches _send_query()</text>
  <text x="520" y="1474" fill="#555" font-size="9">Daemon · sync → async</text>

  <text x="50" y="1494" fill="#e0c060" font-size="10" font-weight="600">6.</text>
  <text x="68" y="1494" fill="#b0aec0" font-size="10">Event loop runs _send_query: query() → receive_response()</text>
  <text x="520" y="1494" fill="#555" font-size="9">Event loop · async</text>

  <text x="50" y="1514" fill="#e0c060" font-size="10" font-weight="600">7.</text>
  <text x="68" y="1514" fill="#b0aec0" font-size="10">Messages stream back: _emit_entry() → TCP → queue → emit</text>
  <text x="520" y="1514" fill="#555" font-size="9">async → sync threads</text>

  <text x="50" y="1534" fill="#e0c060" font-size="10" font-weight="600">8.</text>
  <text x="68" y="1534" fill="#b0aec0" font-size="10">Browser receives session_entry events, updates UI live</text>
  <text x="520" y="1534" fill="#555" font-size="9">JS · sync</text>

  <text x="50" y="1554" fill="#e0c060" font-size="10" font-weight="600">9.</text>
  <text x="68" y="1554" fill="#b0aec0" font-size="10">ResultMessage arrives → state=IDLE → dispatches queued msgs</text>
  <text x="520" y="1554" fill="#555" font-size="9">Event loop · async</text>

</svg>